<?xml version="1.0" encoding="UTF-8"?> <svg xmlns="http://www.w3.org/2000/svg" width="379px" height="117px" viewBox="0 0 3790 1170" preserveAspectRatio="xMidYMid meet"> <g id="layer101" fill="#2d395c" stroke="none"> <path d="M0 585 l0 -585 1895 0 1895 0 0 585 0 585 -1895 0 -1895 0 0 -585z"></path> </g> <g id="layer102" fill="#bd6027" stroke="none"> <path d="M0 585 l0 -585 1895 0 1895 0 0 585 0 585 -1895 0 -1895 0 0 -585z m2751 333 c26 -10 61 -35 80 -54 l33 -34 -26 -27 -27 -26 -27 19 c-64 45 -81 54 -121 60 -110 16 -209 -47 -253 -162 -32 -84 -32 -224 0 -309 61 -160 245 -218 357 -113 l22 20 25 -28 c31 -36 31 -36 4 -61 -52 -48 -109 -68 -193 -68 -123 1 -215 52 -279 154 -101 162 -79 438 45 562 93 93 237 120 360 67z m-2511 -383 l0 -395 -50 0 -50 0 0 395 0 395 50 0 50 0 0 -395z m399 168 c0 -126 -4 -270 -7 -321 -4 -50 -5 -92 -2 -92 3 0 23 33 44 73 21 39 102 183 180 319 l141 247 53 1 52 0 0 -390 0 -390 -46 0 -45 0 3 320 c2 176 1 320 -2 320 -3 0 -18 -26 -34 -57 -15 -32 -95 -176 -178 -320 l-150 -263 -54 0 -54 0 0 390 0 390 50 0 50 0 -1 -227z m2501 42 l0 -185 185 0 185 0 0 185 0 185 50 0 50 0 0 -390 0 -390 -50 0 -50 0 -2 163 -3 162 -180 0 -180 0 -3 -162 -2 -163 -50 0 -50 0 0 390 0 390 50 0 50 0 0 -185z"></path> </g> <g id="layer103" fill="#cc6627" stroke="none"> <path d="M0 585 l0 -585 1895 0 1895 0 0 585 0 585 -1895 0 -1895 0 0 -585z m1981 388 c13 -16 12 -17 -3 -4 -17 13 -22 21 -14 21 2 0 10 -8 17 -17z m-596 -33 c3 -5 4 -10 1 -10 -3 0 -8 5 -11 10 -3 6 -4 10 -1 10 3 0 8 -4 11 -10z m1366 -22 c26 -10 61 -35 80 -54 l33 -34 -26 -27 -27 -26 -27 19 c-64 45 -81 54 -121 60 -110 16 -209 -47 -253 -162 -32 -84 -32 -224 0 -309 61 -160 245 -218 357 -113 l22 20 25 -28 c31 -36 31 -36 4 -61 -52 -48 -109 -68 -193 -68 -123 1 -215 52 -279 154 -101 162 -79 438 45 562 93 93 237 120 360 67z m-2511 -383 l0 -395 -50 0 -50 0 0 395 0 395 50 0 50 0 0 -395z m399 168 c0 -126 -4 -270 -7 -321 -4 -50 -5 -92 -2 -92 3 0 23 33 44 73 21 39 102 183 180 319 l141 247 53 1 52 0 0 -390 0 -390 -46 0 -45 0 3 320 c2 176 1 320 -2 320 -3 0 -18 -26 -34 -57 -15 -32 -95 -176 -178 -320 l-150 -263 -54 0 -54 0 0 390 0 390 50 0 50 0 -1 -227z m2501 42 l0 -185 185 0 185 0 0 185 0 185 50 0 50 0 0 -390 0 -390 -50 0 -50 0 -2 163 -3 162 -180 0 -180 0 -3 -162 -2 -163 -50 0 -50 0 0 390 0 390 50 0 50 0 0 -185z m-1743 58 c-4 -3 -7 0 -7 7 0 7 3 10 7 7 3 -4 3 -10 0 -14z m738 -13 c3 -6 -1 -7 -9 -4 -18 7 -21 14 -7 14 6 0 13 -4 16 -10z m-358 -87 c-4 -3 -10 -3 -14 0 -3 4 0 7 7 7 7 0 10 -3 7 -7z m30 -450 c-4 -3 -7 0 -7 7 0 7 3 10 7 7 3 -4 3 -10 0 -14z m-372 -43 c3 -5 4 -10 1 -10 -3 0 -8 5 -11 10 -3 6 -4 10 -1 10 3 0 8 -4 11 -10z m552 -17 c-4 -3 -10 -3 -14 0 -3 4 0 7 7 7 7 0 10 -3 7 -7z"></path> </g> <g id="layer104" fill="#bb6b38" stroke="none"> <path d="M0 585 l0 -585 1895 0 1895 0 0 585 0 585 -1895 0 -1895 0 0 -585z m1786 470 c39 -8 84 -21 100 -30 16 -8 34 -15 40 -15 6 0 28 -16 50 -35 l39 -34 -37 -1 c-20 0 -40 -5 -44 -11 -5 -8 -9 -8 -14 1 -12 20 -34 -24 -60 -120 -13 -47 -30 -91 -39 -97 -10 -9 -53 -13 -132 -13 -129 0 -133 2 -144 63 -4 20 -11 37 -15 37 -4 0 -10 16 -13 34 -3 19 -13 50 -22 69 -14 31 -20 34 -60 35 -50 0 -70 -16 -62 -50 6 -26 43 -133 57 -163 5 -11 22 -63 39 -115 16 -52 55 -169 86 -260 31 -91 57 -173 59 -183 4 -27 25 -37 81 -37 61 0 79 17 99 93 8 29 21 72 30 96 9 24 16 52 16 62 0 11 4 19 8 19 5 0 23 48 41 108 18 59 40 122 48 141 26 58 83 245 83 270 l0 25 31 -30 c32 -31 42 -46 88 -139 37 -76 47 -166 31 -283 -7 -48 -16 -89 -20 -92 -4 -3 -17 -25 -30 -50 -29 -59 -122 -160 -146 -160 -8 0 -14 -7 -14 -15 0 -8 -7 -15 -15 -15 -9 0 -38 -12 -65 -26 -73 -38 -226 -45 -322 -16 -183 57 -295 182 -334 374 -16 76 -17 95 -5 165 7 43 17 82 22 88 5 5 9 19 9 31 0 12 3 24 8 26 4 2 21 23 37 48 45 67 56 79 104 113 87 60 142 83 217 92 14 1 28 5 31 9 10 10 64 7 139 -9z m965 -137 c26 -10 61 -35 80 -54 l33 -34 -26 -27 -27 -26 -27 19 c-64 45 -81 54 -121 60 -110 16 -209 -47 -253 -162 -32 -84 -32 -224 0 -309 61 -160 245 -218 357 -113 l22 20 25 -28 c31 -36 31 -36 4 -61 -52 -48 -109 -68 -193 -68 -123 1 -215 52 -279 154 -101 162 -79 438 45 562 93 93 237 120 360 67z m-2511 -383 l0 -395 -50 0 -50 0 0 395 0 395 50 0 50 0 0 -395z m399 168 c0 -126 -4 -270 -7 -321 -4 -50 -5 -92 -2 -92 3 0 23 33 44 73 21 39 102 183 180 319 l141 247 53 1 52 0 0 -390 0 -390 -46 0 -45 0 3 320 c2 176 1 320 -2 320 -3 0 -18 -26 -34 -57 -15 -32 -95 -176 -178 -320 l-150 -263 -54 0 -54 0 0 390 0 390 50 0 50 0 -1 -227z m2501 42 l0 -185 185 0 185 0 0 185 0 185 50 0 50 0 0 -390 0 -390 -50 0 -50 0 -2 163 -3 162 -180 0 -180 0 -3 -162 -2 -163 -50 0 -50 0 0 390 0 390 50 0 50 0 0 -185z m-1350 -165 c0 -6 -4 -18 -9 -28 -20 -42 -52 -147 -68 -225 -6 -30 -23 -47 -23 -23 0 9 -4 16 -10 16 -5 0 -10 10 -10 21 0 19 -20 88 -56 194 -8 23 -14 44 -14 48 0 4 43 7 95 7 58 0 95 -4 95 -10z"></path> </g> <g id="layer105" fill="#b6734a" stroke="none"> <path d="M0 585 l0 -585 1895 0 1895 0 0 585 0 585 -1895 0 -1895 0 0 -585z m1770 482 c8 -3 31 -8 50 -11 19 -3 48 -13 64 -21 15 -8 33 -15 38 -15 6 0 26 -13 45 -30 18 -16 40 -30 48 -30 14 0 85 -77 85 -93 0 -5 8 -21 19 -35 23 -34 63 -141 62 -167 0 -11 4 -37 10 -58 7 -28 7 -42 -1 -52 -6 -8 -11 -27 -9 -42 1 -15 -3 -41 -10 -56 -6 -16 -11 -33 -11 -39 0 -19 -64 -133 -82 -146 -10 -7 -16 -18 -13 -23 4 -5 -1 -9 -9 -9 -8 0 -19 -6 -23 -13 -27 -42 -155 -113 -221 -122 -29 -4 -54 -11 -58 -16 -7 -13 -111 -11 -119 2 -4 5 -17 9 -28 8 -24 -2 -34 1 -114 37 -73 32 -193 127 -193 153 0 5 -7 14 -16 22 -23 19 -51 78 -59 126 -4 24 -11 45 -16 49 -11 7 -12 167 -1 180 5 5 15 35 22 68 14 61 86 170 138 211 14 11 37 30 49 43 13 12 29 22 34 22 6 0 23 6 37 14 54 28 80 38 112 45 38 7 148 6 170 -2z m981 -149 c26 -10 61 -35 80 -54 l33 -34 -26 -27 -27 -26 -27 19 c-64 45 -81 54 -121 60 -110 16 -209 -47 -253 -162 -32 -84 -32 -224 0 -309 61 -160 245 -218 357 -113 l22 20 25 -28 c31 -36 31 -36 4 -61 -52 -48 -109 -68 -193 -68 -123 1 -215 52 -279 154 -101 162 -79 438 45 562 93 93 237 120 360 67z m-2511 -383 l0 -395 -50 0 -50 0 0 395 0 395 50 0 50 0 0 -395z m399 168 c0 -126 -4 -270 -7 -321 -4 -50 -5 -92 -2 -92 3 0 23 33 44 73 21 39 102 183 180 319 l141 247 53 1 52 0 0 -390 0 -390 -46 0 -45 0 3 320 c2 176 1 320 -2 320 -3 0 -18 -26 -34 -57 -15 -32 -95 -176 -178 -320 l-150 -263 -54 0 -54 0 0 390 0 390 50 0 50 0 -1 -227z m2501 42 l0 -185 185 0 185 0 0 185 0 185 50 0 50 0 0 -390 0 -390 -50 0 -50 0 -2 163 -3 162 -180 0 -180 0 -3 -162 -2 -163 -50 0 -50 0 0 390 0 390 50 0 50 0 0 -185z"></path> <path d="M1896 908 c-9 -21 -21 -61 -27 -90 -6 -29 -15 -57 -20 -62 -5 -6 -9 -20 -9 -32 0 -31 -19 -35 -145 -33 -116 1 -145 9 -145 37 0 10 -6 26 -13 37 -8 11 -17 35 -20 53 -4 19 -14 49 -23 68 -16 33 -19 34 -71 34 -42 0 -54 -3 -50 -14 3 -7 33 -94 66 -192 34 -98 65 -188 70 -199 5 -11 14 -40 21 -65 6 -25 18 -58 25 -75 6 -16 22 -63 35 -103 12 -40 26 -75 31 -77 4 -3 6 -12 3 -20 -8 -19 22 -32 78 -34 55 -1 72 16 84 84 3 22 10 45 14 50 4 6 15 35 25 65 10 30 24 70 32 88 8 17 16 46 18 63 2 18 9 37 14 42 6 6 11 21 11 33 0 13 5 26 10 29 6 3 10 16 10 29 0 12 4 26 8 31 13 15 72 191 72 214 0 11 5 23 10 26 23 14 7 25 -39 25 -30 0 -51 5 -54 13 -3 6 -12 -5 -21 -25z m-112 -333 c-3 -56 -14 -107 -29 -128 -8 -12 -15 -33 -15 -47 0 -14 -4 -30 -10 -36 -5 -5 -11 -23 -13 -40 -2 -16 -7 -35 -11 -42 -11 -18 -26 -14 -26 7 0 11 -5 23 -10 26 -6 4 -8 10 -6 14 3 4 -9 52 -26 107 -56 182 -58 176 59 172 l88 -3 -1 -30z"></path> </g> <g id="layer106" fill="#ffedd6" stroke="none"> <path d="M0 585 l0 -585 1895 0 1895 0 0 585 0 585 -1895 0 -1895 0 0 -585z m1824 475 c131 -33 256 -132 316 -250 55 -108 68 -263 31 -381 -75 -239 -329 -389 -573 -338 -226 47 -398 256 -398 483 0 144 49 261 148 361 126 125 299 170 476 125z m927 -142 c26 -10 61 -35 80 -54 l33 -34 -26 -27 -27 -26 -27 19 c-64 45 -81 54 -121 60 -110 16 -209 -47 -253 -162 -32 -84 -32 -224 0 -309 61 -160 245 -218 357 -113 l22 20 25 -28 c31 -36 31 -36 4 -61 -52 -48 -109 -68 -193 -68 -123 1 -215 52 -279 154 -101 162 -79 438 45 562 93 93 237 120 360 67z m-2511 -383 l0 -395 -50 0 -50 0 0 395 0 395 50 0 50 0 0 -395z m399 168 c0 -126 -4 -270 -7 -321 -4 -50 -5 -92 -2 -92 3 0 23 33 44 73 21 39 102 183 180 319 l141 247 53 1 52 0 0 -390 0 -390 -46 0 -45 0 3 320 c2 176 1 320 -2 320 -3 0 -18 -26 -34 -57 -15 -32 -95 -176 -178 -320 l-150 -263 -54 0 -54 0 0 390 0 390 50 0 50 0 -1 -227z m2501 42 l0 -185 185 0 185 0 0 185 0 185 50 0 50 0 0 -390 0 -390 -50 0 -50 0 -2 163 -3 162 -180 0 -180 0 -3 -162 -2 -163 -50 0 -50 0 0 390 0 390 50 0 50 0 0 -185z"></path> <path d="M1382 908 c3 -7 60 -177 128 -378 68 -201 127 -370 132 -377 5 -6 31 -11 60 -10 l50 2 129 380 c71 208 129 383 129 388 0 4 -23 7 -52 5 l-52 -3 -35 -112 -34 -113 -143 0 -143 0 -36 115 -36 115 -50 0 c-37 0 -50 -4 -47 -12z m421 -305 c2 -5 -15 -71 -39 -148 -24 -77 -49 -160 -57 -185 l-14 -45 -17 60 c-9 33 -35 117 -56 187 -22 69 -40 129 -40 132 0 9 218 7 223 -1z"></path> </g> <g id="layer107" fill="#fefefe" stroke="none"> <path d="M0 585 l0 -585 1895 0 1895 0 0 585 0 585 -1895 0 -1895 0 0 -585z m1763 499 c4 -4 23 -8 43 -10 20 -2 54 -12 76 -24 21 -11 43 -20 49 -20 12 0 69 -41 113 -79 29 -26 106 -125 106 -136 0 -3 9 -25 19 -48 39 -85 45 -191 20 -315 -6 -28 -15 -52 -20 -52 -5 0 -9 -7 -9 -15 0 -26 -51 -109 -96 -155 -53 -55 -135 -107 -209 -131 -102 -33 -325 -18 -385 26 -8 6 -27 17 -41 24 -52 26 -146 127 -187 199 -38 68 -51 173 -42 336 5 100 135 286 234 334 108 53 168 70 252 71 39 1 74 -2 77 -5z m988 -166 c26 -10 61 -35 80 -54 l33 -34 -26 -27 -27 -26 -27 19 c-64 45 -81 54 -121 60 -110 16 -209 -47 -253 -162 -32 -84 -32 -224 0 -309 61 -160 245 -218 357 -113 l22 20 25 -28 c31 -36 31 -36 4 -61 -52 -48 -109 -68 -193 -68 -123 1 -215 52 -279 154 -101 162 -79 438 45 562 93 93 237 120 360 67z m-2511 -383 l0 -395 -50 0 -50 0 0 395 0 395 50 0 50 0 0 -395z m399 168 c0 -126 -4 -270 -7 -321 -4 -50 -5 -92 -2 -92 3 0 23 33 44 73 21 39 102 183 180 319 l141 247 53 1 52 0 0 -390 0 -390 -46 0 -45 0 3 320 c2 176 1 320 -2 320 -3 0 -18 -26 -34 -57 -15 -32 -95 -176 -178 -320 l-150 -263 -54 0 -54 0 0 390 0 390 50 0 50 0 -1 -227z m2501 42 l0 -185 185 0 185 0 0 185 0 185 50 0 50 0 0 -390 0 -390 -50 0 -50 0 -2 163 -3 162 -180 0 -180 0 -3 -162 -2 -163 -50 0 -50 0 0 390 0 390 50 0 50 0 0 -185z"></path> <path d="M1417 833 c14 -43 29 -87 33 -98 5 -11 11 -29 13 -40 3 -11 30 -92 61 -180 31 -88 71 -203 88 -255 38 -115 59 -133 118 -103 17 8 30 20 30 26 0 15 124 392 149 452 9 22 80 229 88 258 5 16 0 18 -38 15 l-44 -3 -28 -90 c-35 -115 -38 -119 -73 -123 -16 -2 -34 -8 -41 -13 -7 -7 -14 -6 -18 1 -7 11 -138 14 -149 3 -24 -25 -76 3 -76 41 0 12 -7 34 -15 49 -8 15 -17 45 -21 65 -11 61 -21 72 -64 72 l-38 0 25 -77z m398 -222 c2 -5 -11 -57 -30 -117 -19 -60 -35 -114 -35 -121 0 -19 -52 -153 -59 -153 -3 0 -16 35 -29 77 -25 90 -60 203 -77 253 -21 63 -17 65 110 67 63 1 117 -2 120 -6z"></path> </g> </svg> 