<svg width="192" height="68" viewBox="0 0 192 68" fill="none" xmlns="http://www.w3.org/2000/svg">
<path d="M0 33.944V67.8882H96H192V33.944V-0.000106812H96H0V33.944ZM186.05 33.944V61.965H96H5.94994V33.944V5.92303H96H186.05V33.944Z" fill="black"/>
<path d="M155.592 23.3271C149.344 25.5141 146.575 32.5763 149.573 38.6817C151.381 42.395 155.203 44.6504 159.665 44.6504C161.702 44.6504 163.373 44.3087 164.952 43.5797C166.233 42.9646 168.201 41.1876 168.773 40.0941L169.117 39.4335L167.103 38.1349C166.004 37.4287 164.952 36.7908 164.746 36.7453C164.494 36.6769 164.219 36.882 163.945 37.3376C163.167 38.6361 161.931 39.274 160.054 39.3651C158.681 39.4335 158.201 39.3651 157.331 38.9551C155.409 38.021 154.31 35.6745 154.516 32.9636C154.791 29.6375 157.217 27.4733 160.169 27.9061C161.519 28.1111 162.732 28.7262 163.464 29.6147C163.784 29.9792 164.128 30.2982 164.242 30.2982C164.517 30.2982 168.659 27.4733 168.659 27.291C168.659 27.1999 168.064 26.5165 167.354 25.7875C165.18 23.6004 163.006 22.8031 159.276 22.7803C157.583 22.7803 156.759 22.917 155.592 23.3271Z" fill="black"/>
<path d="M24.0278 33.6933V44.4233H27.0028H29.9778V42.168V39.9354L32.2204 39.7987C33.4333 39.7304 34.9666 39.5026 35.6302 39.3203C38.1704 38.523 40.1384 36.541 40.8707 33.9895C41.3742 32.2809 41.214 29.2054 40.5733 27.7474C39.841 26.1527 38.2162 24.5353 36.5456 23.7835L35.1268 23.1228L29.5887 23.0545L24.0278 22.9861V33.6933ZM33.8224 28.4764C35.6989 29.6155 35.7218 33.1694 33.8681 34.2629C33.4791 34.4679 32.4722 34.7185 31.5797 34.7868L29.9778 34.9235V31.4608V28.0208H31.5339C32.6781 28.0208 33.2731 28.1347 33.8224 28.4764Z" fill="black"/>
<path d="M50.1605 30.6837C50.2291 38.1559 50.252 38.4293 50.7783 39.7278C51.7395 42.0971 53.9364 43.8512 56.7969 44.4436C58.6048 44.8308 62.3121 44.5802 63.9597 43.9652C66.0193 43.1678 67.7814 41.3453 68.3993 39.3178C68.8341 37.8825 68.8799 37.2219 68.8799 30.3875V23.0064H65.9049H62.9299V30.1369C62.9299 38.1104 62.8842 38.361 61.3052 39.2266C60.1152 39.8873 58.1242 39.705 57.2088 38.8394C56.8198 38.4749 56.4079 37.8142 56.2935 37.3814C56.179 36.9257 56.0646 33.5541 56.0646 29.7724V23.0064H53.0668H50.0918L50.1605 30.6837Z" fill="black"/>
<path d="M79.6372 33.7388V44.4688L85.7702 44.3776C91.4455 44.2865 91.9719 44.2637 93.1619 43.7853C96.297 42.5551 97.3726 41.006 97.3726 37.8166C97.3726 35.2195 96.5716 33.8527 94.4434 32.7819L93.5738 32.3263L94.2603 31.7568C96.297 30.0482 96.0224 25.9931 93.7569 24.3529C92.1092 23.1682 91.1023 23.0088 85.0837 23.0088H79.6372V33.7388ZM88.7223 27.8156C89.5004 28.1118 89.7063 28.3851 89.7063 29.3192C89.7063 30.3899 89.0427 30.7544 87.0289 30.7544H85.3583V29.1597V27.565H86.7085C87.4637 27.565 88.3561 27.6789 88.7223 27.8156ZM90.2784 35.4018C90.6904 35.584 91.148 35.9258 91.2853 36.1764C91.7202 36.9965 91.5828 38.2039 90.9879 38.8873C90.4615 39.5024 90.3471 39.5252 87.8985 39.5936L85.3583 39.6847V37.3838V35.0829H87.4179C88.6994 35.0829 89.7979 35.1968 90.2784 35.4018Z" fill="black"/>
<path d="M107.329 33.7161V44.4233H114.766H122.203V41.9174V39.4114H117.741H113.279V31.2102V23.0089H110.304H107.329V33.7161Z" fill="black"/>
<path d="M132.272 33.7161V44.4233H135.247H138.222V33.7161V23.0089H135.247H132.272V33.7161Z" fill="black"/>
</svg>
